<svg xmlns="http://www.w3.org/2000/svg" viewBox="0 0 700 700"><defs><style>.cls-1{fill:none;stroke:#3a3a3a;stroke-linecap:round;stroke-linejoin:round;stroke-width:5px;}</style></defs><g id="Capa_4" data-name="Capa 4"><path class="cls-1" d="M349.88,260.31a21.32,21.32,0,0,0-6.49,4.43c-3.34,3.38-3.65,6.09-6.61,9.56a22.77,22.77,0,0,1-8.28,6"/><path class="cls-1" d="M382.11,259.51a21.3,21.3,0,0,0-6.48,4.43c-3.35,3.38-3.65,6.08-6.61,9.56a23,23,0,0,1-8.28,6"/><path class="cls-1" d="M342.79,289.89a21.3,21.3,0,0,0-6.48,4.43c-3.35,3.38-3.65,6.09-6.61,9.57a22.89,22.89,0,0,1-8.28,6"/><path class="cls-1" d="M373.4,289.57a21.11,21.11,0,0,0-6.48,4.42c-3.35,3.38-3.66,6.09-6.62,9.57a22.89,22.89,0,0,1-8.28,6"/></g></svg>