<svg xmlns="http://www.w3.org/2000/svg" viewBox="0 0 700 700"><defs><style>.cls-1{fill:none;stroke:#3a3a3a;stroke-linecap:round;stroke-linejoin:round;stroke-width:5px;}</style></defs><g id="Capa_4" data-name="Capa 4"><path class="cls-1" d="M351,305.13l29.84.07a57.53,57.53,0,0,1,.45-6.63c.16-1.32.36-2.58.59-3.78a26.83,26.83,0,0,1-6.53-12.4H357.7a22.56,22.56,0,0,1-3.55,7.71,22.21,22.21,0,0,1-4.4,4.59c.28,1.34.53,2.77.73,4.29.07.52.18,1.81.28,3.1S350.94,304.64,351,305.13Z"/><path class="cls-1" d="M350.78,302.36l-24.65-.09c-.2-2.21-.49-4.57-.92-7-.33-1.94-.71-3.77-1.11-5.49a43.59,43.59,0,0,0,7.24-11.86,42.9,42.9,0,0,0,2.93-11.43h27.07a40.21,40.21,0,0,0,1.42,8.14,40.77,40.77,0,0,0,3.12,7.81"/></g></svg>