<svg xmlns="http://www.w3.org/2000/svg" viewBox="0 0 700 700"><defs><style>.cls-1{opacity:0.69;}.cls-2{fill:none;stroke:#000;stroke-linecap:round;stroke-linejoin:round;stroke-width:4px;}</style></defs><g id="Capa_4" data-name="Capa 4"><g class="cls-1"><path class="cls-2" d="M376.9,262.31l-6,5.73c-10.08-6-22.09-5.3-29.51,1.31-6.5,5.79-7.15,14-7.25,16.15-.07,1.26-.49,11.95,7.87,18.85a22.07,22.07,0,0,0,12.75,4.87c9.39.17,17.45-4.63,20.18-11.81A17,17,0,0,0,375,286c-1.92-5.33-7.06-10.59-13.67-10.88-4.06-.18-9.37,1.48-11.85,5.64a9.68,9.68,0,0,0-1.19,3.11c-1,4.67,1.22,9.22,5,10.87,4.26,1.86,8.41-.84,8.7-1,1.9-2,2.47-4.59,1.5-6.31a3.85,3.85,0,0,0-1.61-1.5"/><path class="cls-2" d="M334.89,280.44A58.89,58.89,0,0,1,318.08,306,88.35,88.35,0,0,0,354,309.16"/></g></g></svg>