<svg xmlns="http://www.w3.org/2000/svg" viewBox="0 0 700 700"><defs><style>.cls-1{fill:#eae8e5;stroke-width:0.25px;}.cls-1,.cls-6{stroke:#2b2b2b;}.cls-1,.cls-2,.cls-6{stroke-miterlimit:10;}.cls-2,.cls-5{fill:#c9cbcb;}.cls-2{stroke:#050404;stroke-width:0.5px;}.cls-3{fill:#84878e;}.cls-4{fill:#f4f3f3;}.cls-6{fill:none;stroke-width:2px;}.cls-7{fill:#e0e2e1;}.cls-8{fill:#2b2b2b;}</style></defs><g id="Capa_3" data-name="Capa 3"><path class="cls-1" d="M180,252.13c9.5-2.36,21.46-5,35.39-7.43,8.79-1.52,21.62-3.49,38.35-5.09,8.77-.84,27.43-2.43,93.26-2.48,23.31,0,39.16,0,61.56.52,24,.58,44.28,1.51,59.48,2.35a222.17,222.17,0,0,1,32.35,9.39c6.15,2.31,11.87,4.77,17.13,7.26a24.31,24.31,0,0,1,0,16.22,23.51,23.51,0,0,1,0,14.47,40.66,40.66,0,0,1,0,19,17,17,0,0,1,1.26,4.32,17.87,17.87,0,0,1-1.26,9.6,191.56,191.56,0,0,1-63.05,9.7l-211.56-1.57c-8.77-1.39-18.2-3.25-28.17-5.73-11.35-2.83-21.72-6.06-31-9.4a29.69,29.69,0,0,1-5.22-9.65A30.19,30.19,0,0,1,177,293.22,31.85,31.85,0,0,1,175.83,283a31.51,31.51,0,0,1,1.21-7.43A30.61,30.61,0,0,1,180,252.13Z"/><path class="cls-2" d="M270.61,245.73h163c4,.64,13.84,2.82,20.25,11.16,5.65,7.36,5.42,15.32,5.06,28.28-.39,13.75-.68,24.15-8.5,31.33-5.66,5.2-12.73,6.4-16.81,6.71h-163c-4.28-.37-11.55-1.71-17.27-7.16-7.9-7.52-8-18.23-8-32.11-.07-12.67-.11-20.65,5.72-27.83C257.36,248.32,266.68,246.32,270.61,245.73Z"/><path class="cls-3" d="M388.76,319.24c-.23-1.21,4.87-1.84,10.2-5.63,9.85-7,12.48-19,14.66-29.06,2.58-11.8,4.5-20.58.27-27.35-.94-1.5-3.44-4.91-2.23-7.07.74-1.32,2.58-1.64,5-1.89a60.07,60.07,0,0,1,14.27.06c7.59,1.23,11.39,1.85,14.66,4.19,4.68,3.35,6.63,7.95,7.72,10.6,2.47,6,2.56,11.7,1.57,20.68-2,18.36-3.05,27.54-7.59,31.54-3.33,2.94-5.82,2.71-33.24,4.06C397,320.21,389,320.74,388.76,319.24Z"/><path class="cls-4" d="M308.18,249.45c-1,6.95-2.64,9.23-4.05,9.94a13.58,13.58,0,0,0-5,3.93,65.78,65.78,0,0,0-7.06,16.58c-2.72,10.08-1.43,15.19-4.37,24.52a54.57,54.57,0,0,1-8.11,15.88,6.16,6.16,0,0,1-2.62-2.18c-1-1.58-.73-3-1.39-6.55-.23-1.22-.48-2.2-.66-2.84a129.11,129.11,0,0,1-1.05-54.31,16.59,16.59,0,0,0-8.5-.87c-2.56.45-5.17.66-7.68,1.31a4.81,4.81,0,0,1-2.18.09,4.35,4.35,0,0,1-1.22-.44,39.85,39.85,0,0,1,5.83-3.27c4.93-2.24,10.87-3.72,25.58-3.45A206,206,0,0,1,308.18,249.45Z"/><ellipse class="cls-5" cx="441.96" cy="260.83" rx="4.38" ry="3.63"/><ellipse class="cls-5" cx="444.9" cy="283.71" rx="4.38" ry="3.63"/><ellipse class="cls-5" cx="441.04" cy="306.38" rx="4.38" ry="2.85"/><circle class="cls-6" cx="442.25" cy="262.35" r="5.69"/><circle class="cls-6" cx="445.21" cy="285.23" r="5.69"/><circle class="cls-6" cx="441.34" cy="308.65" r="5.69"/><ellipse class="cls-7" cx="260.49" cy="260.77" rx="4.38" ry="3.63"/><ellipse class="cls-7" cx="258.49" cy="283.61" rx="3.89" ry="3.63"/><ellipse class="cls-7" cx="260.92" cy="307.88" rx="4.38" ry="3.63"/><circle class="cls-6" cx="259.77" cy="262.37" r="5.69"/><ellipse class="cls-6" cx="257.84" cy="285.15" rx="5.15" ry="5.69"/><circle class="cls-6" cx="260" cy="309.02" r="5.69"/><path class="cls-8" d="M177.06,275.58c2.05.77,4.08,1.55,6.17,2.18s4.15,1.27,6.28,1.71a49.41,49.41,0,0,0,13,.89v.08a46.68,46.68,0,0,1-13.14-.38,37.31,37.31,0,0,1-6.41-1.59,32.54,32.54,0,0,1-6-2.83Z"/><path class="cls-8" d="M177.07,293.17c1.87.84,3.7,1.67,5.58,2.41s3.72,1.51,5.66,2.08a43.94,43.94,0,0,0,12,1.77v.1a40.4,40.4,0,0,1-12.18-1.1,29.49,29.49,0,0,1-5.85-1.93,25.37,25.37,0,0,1-5.23-3.24Z"/><path class="cls-8" d="M517.49,272.92a24.92,24.92,0,0,1-4.44,1.34,35.26,35.26,0,0,1-4.59.54,70.94,70.94,0,0,1-9.22.14v-.1c3.06-.14,6.11-.41,9.13-.84,1.51-.22,3-.54,4.52-.73s3-.38,4.58-.45Z"/><path class="cls-8" d="M517.5,287.39a34.23,34.23,0,0,1-7.15,3.06,38.54,38.54,0,0,1-7.68,1.37,50.39,50.39,0,0,1-7.77.13,52.1,52.1,0,0,1-7.67-1.1l0-.09a52.54,52.54,0,0,0,15.33.26,67.82,67.82,0,0,0,7.5-1.54c2.49-.59,4.91-1.39,7.38-2.18Z"/><path class="cls-8" d="M517.47,306.4a12.78,12.78,0,0,1-4.92,1.38,35.56,35.56,0,0,1-5.06-.14c-1.68-.1-3.33-.25-5-.29a28.92,28.92,0,0,0-5,.38l0-.1a30,30,0,0,1,5-.78c1.69-.06,3.38,0,5,0l5-.06a29.81,29.81,0,0,0,4.93-.48Z"/></g></svg>