<svg xmlns="http://www.w3.org/2000/svg" viewBox="0 0 700 700"><defs><style>.cls-1{fill:#e5e5e5;}.cls-1,.cls-2,.cls-3,.cls-7,.cls-8{stroke:#2b2b2b;}.cls-1,.cls-3{stroke-miterlimit:10;}.cls-2{fill:#9c909e;stroke-width:2px;}.cls-2,.cls-7,.cls-8{stroke-linecap:round;stroke-linejoin:round;}.cls-3{fill:#a73951;stroke-width:0.5px;}.cls-4{fill:#2d0f15;}.cls-5{fill:#3a0a14;}.cls-6,.cls-7{fill:#b8afb7;}.cls-8{fill:none;}.cls-9{fill:#121211;opacity:0.14;}</style></defs><g id="Capa_5" data-name="Capa 5"><path class="cls-1" d="M211.48,174.78a327.2,327.2,0,0,1,0-37.71,258.83,258.83,0,0,1,12.75-65.3c5.9-17.73,9.3-21.41,13.26-22.51C244,47.46,251.61,52.64,266,68.2a342.44,342.44,0,0,1,40.79,54.05,130.28,130.28,0,0,1,90.77,0C410,105.3,421.71,91,431.77,79.42,456,51.5,463.55,47.54,469,49.26c2.28.72,5.45,2.84,11.73,22A244.44,244.44,0,0,1,490.41,111a481,481,0,0,1,4.08,63.74,405.32,405.32,0,0,1,21,84.4c6,43.64,3.33,77.35,1.44,99.68-1.67,19.68-4.35,49.42-15.3,86.69-7.42,25.26-13.06,44.44-27.39,66.05A179.36,179.36,0,0,1,416,566.41c-7.75,5.57-32,21.47-66.24,20.42a108,108,0,0,1-55.13-17.36,203.16,203.16,0,0,1-49.33-42c-30.72-36.25-39.59-73.38-48.57-111a416.18,416.18,0,0,1-9.18-136.67A424,424,0,0,1,211.48,174.78Z"/><path class="cls-2" d="M236.21,165.34q11.39-7,23.45-14,11-6.37,21.68-12.24c-1.88-4.79-4.69-11.68-8.42-19.89-4.89-10.77-7.56-15.19-8.41-16.82-1.4-2.68-11.1-21-17.33-19.31-2.35.64-3.69,4.14-6.38,11.15a86.74,86.74,0,0,0-4.08,14,98.15,98.15,0,0,0-1.79,19.89C234.88,136.84,235.08,149.45,236.21,165.34Z"/><path class="cls-2" d="M425.39,139.59,470,164.83c.66-6.42,1.13-13.32,1.28-20.65A253.89,253.89,0,0,0,470,113.07c-4.55-28.13-9.59-30.74-11.73-30.85-2.36-.12-5.17,3.49-10.7,10.71a149.06,149.06,0,0,0-9.69,14.28,196.88,196.88,0,0,0-8.16,19.12C428,130.93,426.61,135.37,425.39,139.59Z"/><path class="cls-3" d="M190.76,382.32a119,119,0,0,0,23,21.79c12.09,8.68,24.93,17.89,41.56,16.71a46.13,46.13,0,0,0,23.2-8.67c-6,1.71-15.74,3.54-26.51.51-18.5-5.2-29.13-21.67-36.21-32.63-5.12-7.94-6.61-12.55-10.81-20.23-3.49-6.36-6-10-6.78-11.14a193.33,193.33,0,0,0-11.88-16.25c.31,8.41.85,17.23,1.69,26.41C188.78,367,189.71,374.83,190.76,382.32Z"/><path class="cls-3" d="M212.8,471.24a30.94,30.94,0,0,0,11-.86c8-2.12,12.82-6.93,16-10.14a47.17,47.17,0,0,0,11.47-19.79,122.56,122.56,0,0,1-24.19,60.43,172.47,172.47,0,0,1-9.75-18.55C215.62,478.51,214.11,474.8,212.8,471.24Z"/><path class="cls-3" d="M517.69,337.32a168.52,168.52,0,0,0-9.43,14.15c-6.11,10.23-7.07,14.31-11.6,22.56-3.9,7.1-9.19,16.74-19,25.63-6.1,5.53-14.37,13-27,14.53A40.52,40.52,0,0,1,432,411.9,40,40,0,0,0,455.35,422a41,41,0,0,0,20.27-4.21c4.87-2.2,7.73-4.47,18.36-13.51,7.3-6.21,13.73-11.76,19.12-16.45q1.46-10.2,2.55-21.16C516.66,356.44,517.32,346.65,517.69,337.32Z"/><path class="cls-3" d="M493.15,471.56A73.07,73.07,0,0,1,476,460.72a74.14,74.14,0,0,1-19.25-25.43,141,141,0,0,0,24.42,63.87c2.2-4.08,4.42-8.59,6.56-13.51S491.67,476,493.15,471.56Z"/><path class="cls-3" d="M310.79,376.33c-1-2.38-1.65-4.36-2-5.61a80.25,80.25,0,0,0-15.29-29.52c-11-13.38-23.76-19.64-32.65-23.9-8.21-3.93-15.61-6-30.08-10.07-14.14-3.94-26.06-6.58-34.55-8.28a185.61,185.61,0,0,1,20.9,18.61c3.73,3.86,6.4,7,7.4,8.16A187.21,187.21,0,0,1,238,344.1c10.14,14.53,25.23,22,30.19,24.45a85.69,85.69,0,0,0,34,8.7c7.6,4.11,9.62,4.24,10.09,3.63S312.08,379.46,310.79,376.33Zm-14.41-7.52c-.33.47-1.16.84-6.5-.13-3-.55-5.49-1.17-7.27-1.66A66.19,66.19,0,0,1,257.5,355.8a67.45,67.45,0,0,1-23.08-30.59,21.81,21.81,0,0,1-1.4-3.44c-.6-1.95-1.14-3.7-.38-4.47.55-.55,1.56-.36,2.68-.12,3.22.67,5.8,1.22,7.77,1.65A75.68,75.68,0,0,1,291.79,358c.68,1.26,1.63,3.07,2.72,5.27C296.6,367.5,296.74,368.29,296.38,368.81Z"/><path class="cls-4" d="M234.66,317.19c1.64,5.78,8,25.41,27.71,38.45a67,67,0,0,0,31.28,10.77,2.61,2.61,0,0,0,.81-1.18,2.81,2.81,0,0,0-.44-2.41c.77,1.52,1.33,2.83,1.72,3.82s.56,1.54.34,1.91c-.55.91-2.9.34-3.11.29a76.63,76.63,0,0,1-30.6-10.33,72.11,72.11,0,0,1-14.86-12.19,62.21,62.21,0,0,1-5.65-7.17,58.49,58.49,0,0,1-3.14-5.34c-.37-.65-.93-1.64-1.59-2.87a70.31,70.31,0,0,1-4.23-10.57c-.33-1-.72-2.28-.1-2.91A2.11,2.11,0,0,1,234.66,317.19Z"/><path class="cls-3" d="M509.15,297.61c-.36-.64-4.87,1.42-10.61,3.73-4.59,1.83-11.1,4.28-19.22,6.78-2.37.41-5.71,1.05-9.66,2-9.08,2.22-20.4,5-32.32,12.24a103.55,103.55,0,0,0-30.21,30.69,73.67,73.67,0,0,0-5.35,9.66c-2.35,5.24-2.94,8.44-5.93,14.63-1.21,2.5-2.33,4.49-3.06,5.73a73.38,73.38,0,0,1,15.06-5.68c5.43-1.37,7.2-1.14,12.67-2.16a91.32,91.32,0,0,0,23.23-7.74c5.42-2.59,11.3-5.41,17.53-10.93,6.55-5.79,10-11.52,16.7-22.73,4-6.8,7-12.61,8.89-16.54a180.23,180.23,0,0,1,15.87-14.05C506.2,300.54,509.48,298.18,509.15,297.61Zm-37,29.64a67.81,67.81,0,0,1-53.55,42.26,38.69,38.69,0,0,1-5,.7c-2.55.19-3.84.27-4.4-.32-1.64-1.7,2-7.45,2.29-7.84,1.64-2.56,4-6.14,7.08-10.26A159.94,159.94,0,0,1,432,335.72c3.72-3.68,13.81-12.33,34.8-16.44.92-.1,2.26-.21,3.89-.26,2.92-.08,3.26.15,3.4.28C475.61,320.69,472.61,326.33,472.12,327.25Z"/><path class="cls-5" d="M409.08,367.4a58.87,58.87,0,0,0,17.65-2,61.21,61.21,0,0,0,23.39-12.55,71.62,71.62,0,0,0,10.71-11.09,83,83,0,0,0,6.63-9.76c.86-1.55,1.21-2.44,2.42-4.39.09-.13,1-1.53,1.92-3.45a5.29,5.29,0,0,0,.83-2.8,4.15,4.15,0,0,0-.83-2.15c.23,0,1.7-.25,2.2.52a2.45,2.45,0,0,1,.12,1.25,10.63,10.63,0,0,1-.25,2.1,10.86,10.86,0,0,1-.41,1.42c-.12.32-.25.6-.31.73-.14.31-.27.58-.38.78-.49.91-1.22,2.32-2,4.11-.54,1.28-.69,1.85-1.07,2.66a36.3,36.3,0,0,1-3.15,5.11c-4,5.87-6.06,8.8-9.22,12.11A65.33,65.33,0,0,1,430,366.66,69.86,69.86,0,0,1,410.09,370a1.41,1.41,0,0,1-.62-.25A2.13,2.13,0,0,1,409.08,367.4Z"/><path class="cls-6" d="M274.87,308.84q9.45,9,19.09,18.79,6.06,6.17,11.84,12.26a36.24,36.24,0,0,0,4.26,3.23c2.33,1.51,3.69,2.36,4.64,1.85s1-2,1.15-3.56a11.79,11.79,0,0,0-.44-4.06,35.63,35.63,0,0,0-10.8-21.07A34.58,34.58,0,0,0,283,307.33c-2.27-.22-4.18-.32-5.6-.38-2.37-.09-3.45-.06-3.61.4S274.26,308.36,274.87,308.84Z"/><path class="cls-6" d="M418.7,309.14c7.08-.86,9-.43,9.22.26.1.34-.46,1-1.57,2.23a37.11,37.11,0,0,1-2.87,2.93l-31,31.11a22.48,22.48,0,0,1-2.55,2.93c-1.24,1.2-1.52,1.19-1.66,1.15-.85-.26-.74-3-.64-5.29a48.24,48.24,0,0,1,.77-6.63,34.41,34.41,0,0,1,8.73-18A34.92,34.92,0,0,1,418.7,309.14Z"/><path class="cls-7" d="M377.07,428.75a15.6,15.6,0,0,1,4.6-2.77c1.3-.46,3.77-1.1,4.08-.51s-1.45,2.1-5.1,4.91c-1.42,1.09-2.85,2.19-4.27,3.32q-3.75,2.93-7.34,5.86a23.91,23.91,0,0,1,8-10.81Z"/><path class="cls-7" d="M328.38,429.49c-3.6-1.88-4.21-2.71-4.08-3.12.2-.69,2.53-.6,3.44-.51a9.64,9.64,0,0,1,3.51,1,35.71,35.71,0,0,1,6.31,5.29,36.1,36.1,0,0,1,5.8,8.16,69.59,69.59,0,0,0-8.23-6.7A70.64,70.64,0,0,0,328.38,429.49Z"/><path class="cls-7" d="M276.24,514a37.72,37.72,0,0,0,14.79-3.7c6-2.91,8.59-6.3,13.64-11.34,8.27-8.27,16.67-16.67,28.42-21.29a50.92,50.92,0,0,1,38.12.25c5,2.07,8.18,4.32,22.82,17.34,15.42,13.71,19.77,18.19,28.43,20.65a40.72,40.72,0,0,0,11.47,1.53,33.46,33.46,0,0,1-16.11.79c-5.14-1.08-9.61-3.5-28-19.24-11.22-9.6-12.72-11.41-17.7-13.42-7.65-3.08-14.92-3.14-19.37-3.19a51.54,51.54,0,0,0-18.23,2.55,53.31,53.31,0,0,0-13.9,7.4c-4.56,3.2-4.53,4-10.45,8.92-7.41,6.11-11.49,9.46-17.34,11.48A34.43,34.43,0,0,1,276.24,514Z"/><path class="cls-8" d="M453.82,475.89c.48,2,3.86,17.39-3.31,28.94a31.66,31.66,0,0,1-10.11,10.1,26.13,26.13,0,0,1-6,2.4,22.77,22.77,0,0,1-3.25.52"/><path class="cls-8" d="M253.8,474.75c-.57,2.49-4,18.24,5,29.64A24.34,24.34,0,0,0,269,512.48,23.67,23.67,0,0,0,281,514"/><path class="cls-9" d="M192.49,396.73a263.06,263.06,0,0,0,15.67,50.61c3,7,15.2,35.79,33.66,57.56,22.26,26.24,69.86,61.45,129.84,55.64,54.33-5.26,102-42.56,124.17-95.79-5.66,17.76-18.73,50.63-47.5,77.44-15.84,14.77-32.79,24.3-38.62,27.53-12.17,6.76-21.1,11.71-34.37,14.75a107.7,107.7,0,0,1-52.06-1.85C307,578,296.19,570.76,285.36,563.51a189.17,189.17,0,0,1-36.19-31.58c-22.12-26.14-32.57-48.9-37.82-63.35-5.36-14.75-10.55-35.27-11.87-40.49C196.24,415.26,194,404.44,192.49,396.73Z"/></g></svg>