<svg xmlns="http://www.w3.org/2000/svg" viewBox="0 0 700 700"><defs><style>.cls-1{fill:#ededed;stroke-miterlimit:10;}.cls-1,.cls-2,.cls-4{stroke:#2b2b2b;}.cls-2{fill:none;stroke-width:7px;}.cls-2,.cls-4{stroke-linecap:round;stroke-linejoin:round;}.cls-3{fill:#121211;opacity:0.14;}.cls-4{fill:#8c2c45;stroke-width:0.5px;}</style></defs><g id="Capa_5" data-name="Capa 5"><path class="cls-1" d="M226.77,160.26a195.86,195.86,0,0,1,77.4-41.56,207.89,207.89,0,0,1,98.61,1.17A156.64,156.64,0,0,1,490,174.26a153.89,153.89,0,0,1,11,20c10.42,22.81,12.84,42.83,14.49,65,2.72,36.3,4.62,62.12,1.44,99.68-1.67,19.68-4.35,49.42-15.3,86.69-7.42,25.26-13.06,44.44-27.39,66.05A179.36,179.36,0,0,1,416,566.41c-7.75,5.57-32,21.47-66.24,20.42a108,108,0,0,1-55.13-17.36,203.16,203.16,0,0,1-49.33-42c-30.72-36.25-39.59-73.38-48.57-111-11.94-50-10.82-86.75-9.18-136.67,1.34-41,5.83-65.78,19.23-90.69A156.9,156.9,0,0,1,226.77,160.26Z"/><path class="cls-2" d="M236.87,295.39A94.64,94.64,0,0,0,262.65,312c7.63,3.27,12.13,3.92,21.38,8a125.77,125.77,0,0,1,21.1,11.85"/><path class="cls-3" d="M192.68,396.82a262.34,262.34,0,0,0,15.67,50.61c3,7,15.19,35.79,33.65,57.55,22.26,26.25,69.86,61.46,129.85,55.65,54.33-5.26,102-42.56,124.17-95.79-5.66,17.76-18.74,50.63-47.51,77.44-15.84,14.77-32.79,24.3-38.61,27.53-12.17,6.75-21.1,11.71-34.38,14.74a107.69,107.69,0,0,1-52.06-1.85c-16.3-4.64-27.09-11.86-37.91-19.1A188.86,188.86,0,0,1,249.36,532c-22.13-26.14-32.57-48.9-37.82-63.35-5.36-14.76-10.55-35.27-11.87-40.49C196.43,415.35,194.17,404.52,192.68,396.82Z"/><path class="cls-2" d="M410.63,333.8A102.56,102.56,0,0,1,432.8,322c9.13-3.48,14.4-3.93,27.35-7.68,9.51-2.76,17.1-5.54,22-7.44"/><path class="cls-4" d="M189.9,373.28a74.23,74.23,0,0,1,24.61-5.35c30.83-1.27,54.78,18.41,62.46,23.48a205.27,205.27,0,0,1,34.88,29.21,43.23,43.23,0,0,0,20.79,9.92c4.08.67,17.06,2.6,28.95-6.42,3.19-2.42,10.85-8.23,13.42-19.53.51-2.26,2.93-14-3.95-24.77a27.14,27.14,0,0,0-18.16-12.25c-.72-.14-14.86-2.56-24.14,9.35-6.67,8.56-8.06,21-3.49,31.46-.74-.92-16.32-20.88-9.73-42,5.29-16.94,27.64-26.86,46.31-25.07,23.33,2.23,38.39,22.6,43.67,38.75,11.18,34.16-16.48,64.43-25.43,71.21a73.42,73.42,0,0,1-19.18,10.18,61.77,61.77,0,0,1-7.43,1.95,76,76,0,0,1-20.35,2.35,80,80,0,0,1-41.87-13.3,87.38,87.38,0,0,0-48.13-18.39,86.31,86.31,0,0,0-39.77,7.14,344.39,344.39,0,0,1-10.1-42.61C191.75,389.76,190.66,381.29,189.9,373.28Z"/><path class="cls-4" d="M345.86,586.61A221.07,221.07,0,0,0,461.22,431a218.87,218.87,0,0,1-14.56,113,289,289,0,0,1-26.14,19c-13.64,8.79-22.82,14.7-35.89,18.91A106,106,0,0,1,345.86,586.61Z"/></g></svg>