<svg xmlns="http://www.w3.org/2000/svg" viewBox="0 0 700 700"><defs><style>.cls-1{fill:none;stroke:#252428;stroke-linecap:round;stroke-linejoin:round;stroke-width:0.75px;}.cls-2{fill:#484c5d;}.cls-3{fill:#29282c;}</style></defs><g id="Capa_5" data-name="Capa 5"><path class="cls-1" d="M374,350.21c-1.59,1.86-2.82,3.5-3.71,4.76a11.55,11.55,0,0,0-2.17,4.15,8,8,0,0,0-.15,2.66c.2,2.21.27,6,.15,12.19"/><path class="cls-2" d="M206.84,425.08c44.24-5.62,69.33-18.28,84.25-29.31,7.08-5.24,26.51-19.25,54.83-24.57a53.29,53.29,0,0,1,11.06-.84c31.88.65,51.62,19.56,82.39,36a233.19,233.19,0,0,0,52.71,20.32,5.71,5.71,0,0,1,.9,2.58c.11,1.55-.54,2.57-1.45,4.86-.51,1.27-.86,2.6-1.33,3.89-2.17,6-2.78,18.79-2.78,18.79-1.94,9.3-4,18.93-9.51,29.17-2.44,4.55-4.68,7.57-11.34,15.82-12,14.81-17.94,22.21-25.56,30.47A488.16,488.16,0,0,1,389.71,580a107.82,107.82,0,0,1-75-.13,449.73,449.73,0,0,1-39.09-32.61C262.08,534.59,253.46,525,240.94,511c-16-17.9-18.62-22.43-20.15-25.38,0,0-9.71-18.32-11-37.24-.05-.72-.46-3.94-1.27-10.37a18.87,18.87,0,0,0-1-4.78c-.65-1.72-1.24-2.33-1.46-3.7A7.28,7.28,0,0,1,206.84,425.08Z"/><path class="cls-3" d="M222.37,488.37c14.43,12.15,32.17,26.67,52.85,42.76,0,0,28.15,21.9,58.17,33.39a51.56,51.56,0,0,0,18.78,3.13,29.51,29.51,0,0,0,10.44-2.08,17.81,17.81,0,0,0,6.52-3.92c1.45-1.46,2.91-3.56,4.7-9.91,1.51-5.37,1.44-7.29,2.26-10.87,1.21-5.24,5.35-12.24,13.61-26.26a57.7,57.7,0,0,1,3-5.08c1.1-1.47,1.88-2.19,2.06-3.56a6.11,6.11,0,0,0-1.06-3.89c-2.78-4.57-4.56-9.89-7-14.71a123.28,123.28,0,0,1-6.87-16.8c-1.14-3.25-2-6-2.56-8-1,.53-2.39,1.3-4.11,2.2-7.15,3.78-10.76,5.66-12.19,5.42-4.12-.68-6.63-6.34-10.06-14.06a73.36,73.36,0,0,1-4.4-13.21c.69-.92,1.73-2.32,3-4.06,3.19-4.44,3.65-5.27,4.25-5.93,1.79-2,5.82-3.56,15.83-1.23a16.87,16.87,0,0,0,2.35-6.26,17.32,17.32,0,0,0-1.17-9.39,146.94,146.94,0,0,1-2.87-44.76c2.21.36,4.56.83,7,1.45A83.72,83.72,0,0,1,388,377.29c-1.07,6.29-1.43,15,3,23.15,2.38,4.36,4.78,6,8.79,11a81.55,81.55,0,0,1,12.51,21.87,49.38,49.38,0,0,0,27.1-26.93,233.78,233.78,0,0,0,52.71,20.32l-1.64,10.64c-1.2,5.87-2.05,10.71-2.62,14-1.73,10.26-1.91,13.64-3.65,19.47a74.76,74.76,0,0,1-5.08,12.52c-4.81,9.73-10.22,16.68-18,26-9.53,11.36-14.29,17-22.35,25.36a609.53,609.53,0,0,1-49,45.25,101.42,101.42,0,0,1-75-.13,445.18,445.18,0,0,1-92.3-91.46Z"/></g></svg>