<svg xmlns="http://www.w3.org/2000/svg" viewBox="0 0 700 700"><defs><style>.cls-1{fill:#ededed;stroke-miterlimit:10;}.cls-1,.cls-2{stroke:#2b2b2b;}.cls-2,.cls-5{fill:none;stroke-linecap:round;stroke-linejoin:round;}.cls-2{stroke-width:7px;}.cls-3{fill:#6da4b5;}.cls-4{fill:#121211;opacity:0.14;}.cls-5{stroke:#c9c41b;}</style></defs><g id="Capa_5" data-name="Capa 5"><path class="cls-1" d="M226.77,160.26a195.86,195.86,0,0,1,77.4-41.56,207.89,207.89,0,0,1,98.61,1.17A156.64,156.64,0,0,1,490,174.26a153.89,153.89,0,0,1,11,20c10.42,22.81,12.84,42.83,14.49,65,2.72,36.3,4.62,62.12,1.44,99.68-1.67,19.68-4.35,49.42-15.3,86.69-7.42,25.26-13.06,44.44-27.39,66.05A179.36,179.36,0,0,1,416,566.41c-7.75,5.57-32,21.47-66.24,20.42a108,108,0,0,1-55.13-17.36,203.16,203.16,0,0,1-49.33-42c-30.72-36.25-39.59-73.38-48.57-111-11.94-50-10.82-86.75-9.18-136.67,1.34-41,5.83-65.78,19.23-90.69A156.9,156.9,0,0,1,226.77,160.26Z"/><line class="cls-2" x1="226.3" y1="332.41" x2="298.7" y2="332.41"/><path class="cls-3" d="M225.55,498.47c12.45,1.73,31,2.54,51.23-4.12,27.08-8.91,46.15-27.57,75.13-70.44,30.57-45.21,63.95-94.58,86.09-173.74a541.37,541.37,0,0,0,18.52-106,90.68,90.68,0,0,1,12.26,8.74c3.32,2.81,6.17,5.79,11.87,11.74,5.07,5.29,6.91,7.53,7.57,8.35a114.12,114.12,0,0,1,6.7,9.34c7.87,12.42,12.73,29.28,12.73,29.28,4.77,16.56,6,29.59,8,52.68.23,2.68,1.31,15.32,2,32.61.4,10.83.88,23.47.44,39a442.75,442.75,0,0,1-7.75,71.25c-2.59,13.38-5.35,24.12-7.56,32.74-3.63,14.11-5.74,22.33-9.35,32.23a202.37,202.37,0,0,1-17.48,36.37c-19.74,31.74-46.24,49.28-55.15,54.8C404.88,573,381.83,587.31,351,586.57a112.39,112.39,0,0,1-32.09-5.74c-15.2-5.12-25.64-12.35-35.87-19.44a189.9,189.9,0,0,1-57.49-62.92Z"/><path class="cls-4" d="M192.68,396.82a262.34,262.34,0,0,0,15.67,50.61c3,7,15.19,35.79,33.65,57.55,22.26,26.25,69.86,61.46,129.85,55.65,54.33-5.26,102-42.56,124.17-95.79-5.66,17.76-18.74,50.63-47.51,77.44-15.84,14.77-32.79,24.3-38.61,27.53-12.17,6.75-21.1,11.71-34.38,14.74a107.69,107.69,0,0,1-52.06-1.85c-16.3-4.64-27.09-11.86-37.91-19.1A188.86,188.86,0,0,1,249.36,532c-22.13-26.14-32.57-48.9-37.82-63.35-5.36-14.76-10.55-35.27-11.87-40.49C196.43,415.35,194.17,404.52,192.68,396.82Z"/><line class="cls-2" x1="418.96" y1="332.41" x2="495.37" y2="332.41"/><polyline class="cls-5" points="336.86 223.08 336.93 223.03 337.88 224.41 338.06 224.31 338.83 225.65 339.11 225.48 339.95 227.12 340.36 226.88 341.16 228.69 341.7 228.38 341.81 229.54 342.42 229.19 342.5 230.44 343.19 230.05"/><polyline class="cls-5" points="329.35 218.23 329.36 218.22 330.45 219.4 330.53 219.35 331.36 220.38 331.5 220.29 332.6 221.7 332.82 221.57 333.92 223.12 334.24 222.94 334.88 224.14 335.25 223.92 335.81 225.13 336.24 224.88 336.73 226.11 337.22 225.83 337.73 227.18 338.29 226.86 338.84 228.37 339.47 228.01 339.58 229.16 340.26 228.77 340.43 230.07 341.17 229.65 341.46 231.17 342.26 230.7 342.31 232.08 344.09 231.05 343.16 232.99 344.91 231.97 344.51 234.43 346.22 233.44 345.39 235.37 347.07 234.4 346.47 236.52 348.12 235.57"/><polyline class="cls-5" points="314 210.55 315.29 209.81 315.31 211.96 317.03 210.96 316.24 212.96 318.09 211.9 317.37 214.17 319.36 213.02 318.49 215.38 320.63 214.15 319.63 216.61 321.92 215.28 320.99 218.07 323.46 216.64 321.79 218.93 324.37 217.44"/><polyline class="cls-5" points="335.29 235.63 335.32 235.61 336.55 236.43 336.71 236.33 338.02 237.36 338.34 237.17 339.63 238.37 340.11 238.09 340.92 239.19 341.54 238.83 342.21 240.01 342.97 239.57"/><polyline class="cls-5" points="313.21 226.88 313.22 226.88 314.55 227.56 314.6 227.52 316.23 228.41 316.36 228.33 317.87 229.24 318.06 229.13 319.64 230.13 319.91 229.98 320.98 230.82 321.31 230.63 323.03 231.85 323.44 231.62 324.76 232.73 325.24 232.45 326.79 233.75 327.35 233.43 328.34 234.54 328.96 234.18 330.34 235.55 331.05 235.15 331.78 236.28 332.54 235.84 333.63 237.22 334.48 236.73 335.35 238.09 336.26 237.56 336.42 238.63 337.38 238.08 337.89 239.37 338.91 238.78"/><polyline class="cls-5" points="307.14 228.3 307.44 228.13 308.68 229.24 309.35 228.85 310.62 230.41 311.74 229.77 312.07 231.29 313.52 230.45 312.96 232.54 315.36 231.15 314.16 234.04 317.64 232.03 315.44 234.56 318.96 232.53 317.73 235.5 321.31 233.43 320.04 236.44 323.68 234.34 321.5 237.04 325.18 234.91 323.45 237.84 327.2 235.68 324.96 238.46 328.75 236.27 326.15 238.94 329.97 236.74 326.26 240.33 331.49 237.32 328.37 241.25 333.7 238.17 330.1 242 335.53 238.87"/><polyline class="cls-5" points="313.52 243.26 313.76 243.12 316.09 243.76 316.66 243.43 317.9 244.11 318.71 243.64 320.72 244.66 321.9 243.98 323.12 245.13 324.62 244.27 325.13 245.52 326.89 244.5"/><polyline class="cls-5" points="311.84 252.46 312.78 251.92 315.13 252.69 317.06 251.58 317.15 252.83 319.68 251.37"/><polyline class="cls-5" points="306.31 255.75 306.48 255.65 309.59 255.7 311.97 254.32 313.52 255.64 321.11 251.25 316.44 255.6 324.42 250.99"/><polyline class="cls-5" points="340.32 280.05 345.77 276.91 339.54 282.1 344.63 279.16 338.5 284.83 343.13 282.16 337.81 286.65 342.13 284.16 336.69 289.33 340.69 287.02 336.02 290.92 339.84 288.71 334.82 293.73 338.34 291.7 333.82 296.07 337 294.24 333.03 297.93 335.31 296.61 331.88 300.63 332.87 300.06 331.02 302.66 331.03 302.65"/><polyline class="cls-5" points="367.64 285.98 368.75 285.34 368 287.13 369.04 286.52 368.55 288.86 369.49 288.32 368.87 289.87 369.74 289.36 369.19 290.91 370.01 290.44 369.67 292.4 370.39 291.98 370.19 294.04 370.81 293.68 370.59 295.31 371.14 294.99 371.2 297.25 371.63 297 371.6 298.5 371.95 298.3 372.05 299.94 372.32 299.79 372.61 301.69 372.77 301.6 372.92 302.67 373.02 302.61 373.4 304.21 373.42 304.2"/><polyline class="cls-5" points="360.57 270.58 364.54 268.3 360.81 272.71 365.02 270.27 361.02 274.56 365.45 272 361.24 276.55 365.91 273.85 361.41 278.04 366.25 275.24 361.54 279.13 366.5 276.26 361.72 280.78 366.89 277.8 361.85 281.94 367.15 278.88 362.07 283.87 367.6 280.68 362.29 285.81 368.05 282.49 362.48 287.46 368.43 284.03 362.7 289.45 367.18 286.87 362.9 291.19 366.92 288.87 363.13 293.24 366.53 291.28 363.28 294.52 366.25 292.8 363.46 296.08 365.88 294.68 363.67 297.91 365.44 296.88 363.87 299.69 365.17 298.93 364.09 301.7 365.11 301.12 364.28 303.37 365.05 302.93 364.47 305.02 364.99 304.72 364.65 306.61 364.94 306.45 364.85 308.36 364.88 308.35"/><polyline class="cls-5" points="378.94 283.97 379.96 283.38 380.31 285.19 380.79 284.92"/><polyline class="cls-5" points="366.56 267.18 369.86 265.27 367.21 268.58 370.64 266.6 367.87 270 371.44 267.94 368.48 271.31 372.17 269.18 369.32 273.13 373.18 270.9 370.16 274.94 374.16 272.62 370.67 276.03 374.73 273.68 371.35 277.49 375.5 275.1 371.92 278.72 376.14 276.29 372.69 280.38 377 277.89 373.37 281.85 377.77 279.31 374.19 283.6 378.68 281 374.95 285.25 379.54 282.6 375.6 286.64 378.87 284.75 376.1 287.73 379.26 285.9 376.75 289.12 379.76 287.38 377.52 290.78 380.36 289.14 378.35 292.57 381 291.04 378.91 293.78 381.37 292.36 379.57 295.18 381.5 294.07 380 296.12 381.58 295.2 380.71 297.63 381.66 297.08 381.47 299.27 381.65 299.17"/><polyline class="cls-5" points="364.46 266.74 369.14 264.05 364.91 268.01 366.23 267.25 365.42 269.44 366.56 268.79 365.84 270.63 366.83 270.06 366.28 271.88 367.11 271.4 366.79 273.29 367.55 272.85 367.14 274.29 367.86 273.88 367.61 275.61 368.26 275.23 367.99 276.7 368.59 276.35 368.44 277.98 368.99 277.66 369.01 279.57 369.48 279.3 369.68 281.46 370.05 281.24 370.16 282.81 370.47 282.63 370.79 284.58 371.01 284.45 371.19 285.73 371.37 285.63 371.56 286.76 371.68 286.69 372.03 288.09 372.09 288.05"/><polyline class="cls-5" points="378.08 269.71 379.23 269.05 378.92 270.51 379.99 269.89 380 271.53 380.97 270.97 380.79 272.28 381.69 271.76 382.01 273.43 382.79 272.98 383.49 274.83 384.13 274.46 384.92 276.19 385.43 275.89 385.79 277.01 386.22 276.76 387.25 278.39 387.54 278.22 388.64 279.71 388.81 279.62 389.94 280.94 389.98 280.92"/><polyline class="cls-5" points="404.62 278.45 406.1 277.6 407.15 279.18 407.92 278.74 408.95 279.7 409.22 279.55"/><polyline class="cls-5" points="390.55 272.28 394.2 270.17 392.22 273.26 395.81 271.18 393.49 274.01 397.05 271.95 395.13 274.97 398.63 272.94 396.34 275.67 399.81 273.67 398.26 276.8 401.67 274.83 399.82 277.71 403.18 275.77 401.49 278.69 404.79 276.78 402.97 279.56 404.05 278.93"/><polyline class="cls-5" points="377.43 265.43 382.19 262.68 378.65 266.42 383.6 263.56 379.65 267.24 384.76 264.29 380.85 268.23 386.16 265.16 382.11 269.26 387.63 266.07 383.29 270.22 389 266.93 384.46 271.18 390.35 267.77 385.66 272.16 391.75 268.64 386.72 273.02 392.98 269.41 387.87 273.96 390.33 272.54 389.4 275.21 391.73 273.87 390.35 275.99 392.59 274.69 391.85 277.22 393.97 275.99 392.78 277.97 394.81 276.8 393.8 278.81 395.75 277.68 394.83 279.65 396.69 278.57 396.19 280.77 397.94 279.76 397.25 281.63 398.91 280.68 398.51 282.66 400.05 281.76 399.79 283.7 401.15 282.91 400.84 284.56 401.96 283.92 402.23 285.7 403.03 285.24 403.28 286.56 403.84 286.24 404.35 287.43 404.66 287.25 405.67 288.51 405.67 288.5"/><polyline class="cls-5" points="373.64 267.06 381.72 262.39 374.49 268.02 376.99 266.58 375.27 268.89 377.77 267.44 376.12 269.84 378.63 268.39 377.36 271.24 378.41 270.64 378.66 272.7 379.62 272.14 379.51 273.65 380.42 273.13 380.34 274.58 381.19 274.09 381.06 275.4 381.86 274.94 382.35 276.85 383.06 276.43 383.64 278.3 384.27 277.93 384.44 279.2 385.02 278.87 385.4 280.28 385.92 279.99 386.38 281.38 386.83 281.12 387.22 282.32 387.61 282.1 388.44 283.69 388.75 283.51 389.26 284.62 389.52 284.47 390.58 286.1 390.75 286 391.77 287.43 391.86 287.38 392.82 288.61 392.83 288.6"/><polyline class="cls-5" points="368.42 262.2 375.17 258.3 369.06 263.04 376.17 258.93 369.72 263.89 377.2 259.57 370.37 264.74 378.22 260.21 371.07 265.65 379.32 260.89 371.93 266.77 380.66 261.73 372.61 267.64 373.36 267.21 373.83 269.23 374.52 268.83 374.97 270.71 375.6 270.35 375.84 271.84 376.42 271.5 377.03 273.4 377.56 273.1 377.79 274.38 378.27 274.1 378.42 275.19 378.86 274.94 379.5 276.6 379.89 276.37 380.26 277.59 380.61 277.39 381.08 278.66 381.39 278.48 382.18 280.09 382.43 279.94 383.17 281.37 383.37 281.25 384.39 282.96 384.52 282.88 385.34 284.19 385.42 284.14 386.43 285.61 386.46 285.6"/><polyline class="cls-5" points="389.82 257.88 391.3 257.02 393.15 258.07 393.41 257.92"/><polyline class="cls-5" points="388.68 254.57 390.92 253.28 391.44 254.85 393.23 253.81 394.73 255.18 395.99 254.45 397.56 255.46 398.36 255 400.54 255.77 400.86 255.58"/><polyline class="cls-5" points="400.16 251.39 405.46 248.33 404.03 250.78 407.9 248.54 409.5 249.77 411.14 248.83 412.7 249.09 412.89 248.98"/><polyline class="cls-5" points="390.73 252.88 399.51 247.81 393.19 252.84 401.59 247.99 396.87 252.78 404.7 248.26 399.12 252.75 399.42 252.57"/><polyline class="cls-5" points="376.81 257.35 394.52 247.12 379.14 258.29 397.7 247.58 381.17 259.11 388.18 255.06 382.42 259.62 388.79 255.95 384.39 260.42 390.71 256.77 386.55 261.29 390.99 258.73 388.08 261.91 392.56 259.32 390.23 262.78 394.77 260.17 392.32 263.63 396.91 260.98 394.65 264.57 399.3 261.89 396.14 265.08 400.72 262.43 397.98 265.68 402.46 263.1 399.3 266.11 403.7 263.57 401.01 266.68 405.32 264.19 402.65 267.21 406.87 264.78 403.99 267.65 408.13 265.26 406.05 268.32 410.08 266 408.5 269.13 410.61 267.91 409.99 269.62 411.14 268.95 411.85 270.23 411.87 270.21"/><polyline class="cls-5" points="373.59 256.97 390.99 246.93 375.48 257.93 376.35 257.43 377.24 258.82 378.05 258.35 379.24 259.83 379.97 259.4 381.35 260.9 382.01 260.51 382.76 261.61 383.38 261.26 383.98 262.23 384.55 261.9 385.69 263.09 386.2 262.79 387.36 263.93 387.81 263.67 388.95 264.74 389.35 264.51 390.26 265.4 390.61 265.2 391.84 266.2 392.14 266.03 393.59 267.08 393.82 266.94 395.36 267.98 395.54 267.88 396.74 268.67 396.86 268.6 398.43 269.53 398.5 269.49 399.69 270.17 399.72 270.15"/><polyline class="cls-5" points="358.09 265.18 389.62 246.97 358.09 266.98 374.18 257.69 358.09 268.8 368.43 262.84 358.09 270.74 364.26 267.18 358.09 272.23 360.26 270.97 358.08 274.32 360.22 273.09 358.08 276.61 360.17 275.41 358.08 278.19 360.13 277.01 358.08 279.75 360.09 278.59 358.08 280.92 360.07 279.77 358.08 282.39 360.03 281.26 358.33 284.01 359.99 283.05 358.61 285.28 359.66 284.67"/><polyline class="cls-5" points="355.41 265.23 386.88 247.06 355.15 266.94 357.77 265.43 354.86 268.85 357.47 267.34 354.57 270.72 357.19 269.21 354.27 272.74 356.88 271.24 354.02 274.39 356.62 272.88 353.67 276.7 356.1 275.29 353.44 278.14 355.68 276.85 354.43 278.88 355.26 278.4"/><polyline class="cls-5" points="353.88 264.78 384.42 247.14 353.44 266.34 355.1 265.38 352.87 268.33 354.52 267.38 352.37 270.1 354 269.16 351.63 272.73 353.24 271.8 350.93 275.19 352.52 274.27 350.27 277.49 351.85 276.58 349.53 280.13 351.08 279.23 348.78 282.78 350.31 281.89 348.37 284.2 349.9 283.32 347.83 286.1 349.29 285.26 347.2 288.33 348.48 287.59 346.64 290.32 347.76 289.67 346.01 292.55 346.95 292.01 345.49 294.36 346.3 293.9 345.01 296.05 345.69 295.66 344.28 298.64 344.75 298.37 343.66 300.82 343.96 300.65 343.23 302.35 343.4 302.25 342.62 304.49 342.63 304.49"/><polyline class="cls-5" points="352.37 264.27 381.89 247.23 351.27 267.13 353.09 266.08 350.49 269.16 352.25 268.14 349.87 270.76 351.58 269.78 349.18 272.56 350.84 271.61 348.46 274.45 350.06 273.52 347.6 276.69 349.13 275.8 346.64 279.17 348.11 278.33 345.67 281.7 346.84 281.03 344.79 284 345.62 283.52 343.98 286.11 344.5 285.81 343.04 288.56 343.19 288.48"/><polyline class="cls-5" points="397.26 241.31 406.08 236.22 404.61 239.04 408.45 236.82 410.19 237.31 410.78 236.98"/><polyline class="cls-5" points="376.22 247.15 392.98 237.47 380.25 246.55 397.64 236.51 383.56 246.05 401.16 235.9 388.12 245.38 405.8 235.17 393.04 244.64 397.87 241.85 396.4 244.14 400.29 241.9 399.61 243.66 402.4 242.05"/><polyline class="cls-5" points="388.41 237.92 405.37 228.13 399.37 233.08 414.02 224.62 409.25 228.71 414.48 225.69"/><polyline class="cls-5" points="404.62 217.07 405.41 216.61 392.03 225.57 396.93 222.75 379.24 234.22 388.32 228.97"/><polyline class="cls-5" points="399.65 214.17 400.49 213.69 389.48 221.7 396.1 217.88"/><polyline class="cls-5" points="395.11 214.05 395.27 213.96 389.64 219.11 392.04 217.73 383.18 225.09 388.2 222.19 376.88 230.92 390.94 222.8"/><polyline class="cls-5" points="359.15 240.31 376.6 230.23 360.95 240.92 374.02 233.38 364.57 241 381.97 230.96 367.95 241.01 375.5 236.66 367.99 242.57 376.2 237.82 366.9 245.14 378.83 238.25 366.65 246.89 384.71 236.47 366.68 248.1 391.55 233.74 366.89 249.37 399.66 230.45 366.87 250.7 387.66 238.7 362.38 255.31 376.06 247.42"/><polyline class="cls-5" points="346.78 263.54 359.42 256.25 345.73 265.56 377.23 247.38 343.52 268.93 381.06 247.25 341.53 271.81 351.1 266.28 339.32 275.02 349.74 269 337.77 277.26 348.78 270.9 336.13 279.64 347.77 272.92 334.06 282.95 346.28 275.89 332.25 286.28 337.88 283.04 330.75 289.06 335.53 286.3 329.19 292.04 332.98 289.85 328.52 293.58 331.56 291.83 327.26 296.46 328.93 295.49 326.25 298.75 326.83 298.42"/><polyline class="cls-5" points="346.85 260.85 355.58 255.81 344.53 263.35 356.99 256.16 340.54 267.66 345 265.09 337.54 270.9 341.85 268.41 333 275.81 337.08 273.45 329.71 279.62 333.09 277.67 328.52 281.55 330.48 280.42 327.01 284.01 327.17 283.92"/><polyline class="cls-5" points="302.83 274.11 305.04 272.83 305.97 274.37 325.23 263.25 322 267.04 351.08 250.25 333.05 261.94 351.04 251.55 334.15 262.79 351.48 252.78 332.61 265 352.53 253.5 325.88 271.1 353.96 254.89 317.26 277.66 346.94 260.52 316.29 280.02 340.7 265.93 316.77 281.68 333.97 271.75 314.39 284.39 325.63 277.9"/><polyline class="cls-5" points="301.54 268.18 301.95 267.94 305.82 267.54 309.94 265.16 310.25 266.82 318 262.35 319.13 263.9 327.64 258.99 326.52 261.47 335.67 256.19 332.95 259.36 351.09 248.89"/><polyline class="cls-5" points="305.94 259.21 306.11 259.12 309.82 258.56 311.85 257.38 314.14 257.83 326.23 250.85 318.99 257 330.2 250.53 324.36 256.1 334.61 250.18 327.53 255.56 337.2 249.97 332.07 254.79 340.93 249.68 337.36 253.94 353.11 244.84 340.35 253.51 351.37 247.15"/><polyline class="cls-5" points="380.37 223.91 383.19 222.28 376.65 227.39 381.06 224.85"/><polyline class="cls-5" points="390.29 206.94 390.36 206.9 385.79 211.78 387.71 210.67 383.43 214.32 386.33 212.65"/><polyline class="cls-5" points="381.81 211.53 382.03 211.4 379.65 214.78 382.51 213.12 378.01 217.24 382.64 214.57 376.61 219.35 385.05 214.47 374.34 222.76 382.57 218 372.36 225.72 380.43 221.07"/><polyline class="cls-5" points="380.93 206.76 380.97 206.74 378.49 209.92 379.81 209.17"/><polyline class="cls-5" points="380.84 199.5 380.89 199.48 379.06 202.05 380.27 201.34 377.45 204.33 379.72 203.02 376.03 207.14 378.9 205.48 375.08 209.35 378.22 207.53 374.05 211.74 377.49 209.75 372.84 214.53 378.92 211.02 371.68 217.22 377.58 213.82 370.98 218.85 376.77 215.5 370.13 220.81 375.79 217.54 369.31 222.7 374.85 219.5 368.39 224.83 373.79 221.71 367.54 226.8 372.81 223.75 366.65 228.87 371.78 225.91"/><polyline class="cls-5" points="376.14 196.82 376.31 196.72 375.36 198.72 375.75 198.5 374.4 201.05 375.07 200.67 373.32 203.71 374.29 203.14 372.61 205.44 373.79 204.76 371.56 208 373.04 207.15 370.51 210.6 372.27 209.58 369.51 213.27 371.47 212.14 368.87 214.99 370.95 213.78 368.3 216.5 370.5 215.22 367.45 218.77 369.82 217.4 366.39 221.6 368.97 220.11 365.86 223.18 368.48 221.67 365.14 225.46 367.77 223.94 364.68 226.93 367.31 225.41 364.14 228.61 366.78 227.09 363.59 230.36 366.23 228.83 363.11 231.87 365.76 230.35"/><polyline class="cls-5" points="302.81 247.06 302.88 247.01 306.24 247.25 308.21 246.11 308.12 247.36 310.69 245.88 310.54 247.5 313.39 245.86 312.45 247.61 315.52 245.84 315.24 247.77 318.62 245.81 317.96 247.92 321.65 245.79 320.31 248.05 324.27 245.77 323.27 248.22 329.28 244.76 325.65 248.36 331.48 244.99 328.05 248.49 333.72 245.22 330.74 248.65 336.21 245.49 333.43 248.8 338.72 245.75 337 249.03 377.03 225.92 339.62 249.2 375.17 228.68 341.55 249.33 378.39 228.06"/><polyline class="cls-5" points="318.63 241.06 318.79 240.97 320.84 241.54 321.25 241.3 323.71 242.18 324.46 241.74 325.96 242.67 326.99 242.08 327.87 243.09 329.11 242.37 330.44 243.66 337.46 239.6 332 244 338.76 240.1 334.25 244.5 341.81 240.13 336.08 244.9 344.21 240.21 338.43 245.42 362.86 231.31"/><polyline class="cls-5" points="311.05 215.52 311.61 215.2 312.4 216.65 313.59 215.97 313.39 217.47 315.03 216.53 314.99 218.81 317.29 217.48 316.13 219.77 318.88 218.18 317.62 221.01 320.95 219.08 318.64 221.87 325.13 218.12 320.21 223.18 326.65 219.46 321.29 224.08 327.69 220.38 322.98 225.32 329.21 221.72 324.67 226.47 330.66 223.01 325.76 227.21 331.6 223.84 327.24 228.21 332.87 224.96 328.74 229.23 334.16 226.1 329.71 229.89 335 226.84 331.24 230.92 336.31 228 332.42 231.73 337.32 228.89 333.34 232.35 338.12 229.59 334.37 233.05 339 230.37 335.48 233.8 339.96 231.22 337.03 234.85 341.29 232.4 338.03 235.53 342.15 233.16 339.4 236.46 343.32 234.19 340.59 237.27 344.35 235.1 342.39 238.49 345.9 236.47 343.74 239.41 348.89 236.44 345.23 240.42 362.99 230.17"/><polyline class="cls-5" points="359.99 190.45 361.53 189.56 359.09 192.41 363.26 190 358.98 194.58 364.49 191.4 358.88 196.65 365.55 192.79 358.76 198.99 367.8 193.77 358.64 201.36 367.46 196.27 358.57 202.57 367.29 197.54 358.48 204.47 367.02 199.54 358.36 206.83 366.69 202.02 358.25 209.02 366.38 204.33 358.16 210.76 366.13 206.16 358.06 212.67 365.86 208.17 356.95 214.8 365.64 209.78 357 217.01 365.32 212.21 357.04 218.7 365.07 214.06 357.08 220.64 364.78 216.2 357.13 222.81 364.46 218.58 357.18 224.9 364.15 220.87 357.21 226.66 363.89 222.8 357.25 228.44 363.64 224.75"/><polyline class="cls-5" points="353.61 221.1 353.67 221.07 353.77 222.22 353.96 222.11 354.05 224.22 354.49 223.97 354.23 225.46 354.81 225.12 354.49 227.22 355.27 226.76 354.79 229.29 356.64 228.22"/><polyline class="cls-5" points="343.02 195.35 343.06 195.32 343.49 197.29 343.66 197.19 343.81 198.58 344.06 198.44 344.24 200.35 344.6 200.14 344.67 202.1 345.14 201.83 345.06 203.72 345.63 203.39 345.32 204.78 345.96 204.41 345.59 205.85 346.29 205.45 346.06 207.79 346.88 207.31 346.36 209.03 347.26 208.51 346.82 210.89 347.83 210.31 347.21 212.5 348.33 211.85 347.6 214.12 348.82 213.41 347.87 215.42 349.21 214.64 348.2 217.02 349.7 216.16 348.43 218.13 350.03 217.21 348.86 220.16 350.64 219.13 349.03 222.21 351.22 220.95"/><polyline class="cls-5" points="341.5 212.29 341.6 212.23 342.05 213.49 342.34 213.32 342.6 214.69 343.08 214.41 343.43 216.48 344.19 216.04 344.19 218.14 345.14 217.59 344.62 219.08 345.66 218.48 345.1 220.13 346.24 219.47 345.84 221.74 347.14 220.99 346.5 223.17 347.94 222.34 347.09 224.45 351.52 221.89 347.78 225.97 352.04 223.51 348.62 227.78 352.65 225.45 349.22 229.09 353.15 226.82 349.92 230.61 353.78 228.38 350.37 231.6 354.19 229.4 350.97 232.91 356.97 229.45 351.41 233.85 363.38 226.94"/><polyline class="cls-5" points="323.43 197.69 323.44 197.68 324.07 198.68 324.97 198.16 324.87 199.92 326.64 198.9 325.82 201.4 328.32 199.95 326.63 202.67 329.71 200.89 327.41 203.87 330.55 202.06 328.07 204.9 331.27 203.06 328.85 206.11 332.11 204.23 329.89 207.72 333.24 205.79 330.65 208.91 334.07 206.94 331.57 210.34 335.06 208.33 332.56 211.87 336.13 209.81 333.26 212.97 336.89 210.87 334.09 214.25 337.79 212.12 334.91 215.53 338.68 213.35 335.68 216.73 339.48 214.53 336.62 218.19 340.37 216.03 337.24 219.15 340.95 217.01 338.17 220.61 341.83 218.49 339.04 221.91 342.63 219.84 339.64 222.76 343.16 220.72 340.31 223.72 343.76 221.73 341.42 225.28 344.73 223.37 342.2 226.39 345.42 224.53 342.91 227.4 346.05 225.58 343.62 228.41 346.68 226.65 344.5 229.65 347.45 227.95 345.27 230.76 348.14 229.1 346.25 232.15 349 230.56 347.07 233.3 349.72 231.77 347.98 234.59 350.52 233.12 348.92 235.93 351.36 234.52"/></g></svg>