<svg xmlns="http://www.w3.org/2000/svg" viewBox="0 0 700 700"><defs><style>.cls-1{fill:#9c909e;stroke-width:2px;}.cls-1,.cls-2,.cls-6{stroke:#2b2b2b;}.cls-1,.cls-7{stroke-linecap:round;stroke-linejoin:round;}.cls-2{fill:#a73951;stroke-width:0.5px;}.cls-2,.cls-6{stroke-miterlimit:10;}.cls-3{fill:#2d0f15;}.cls-4{fill:#b8afb7;}.cls-5{fill:#121211;opacity:0.14;}.cls-6{fill:#e5e5e5;}.cls-7{fill:none;stroke:#515151;}</style></defs><g id="Capa_5" data-name="Capa 5"><path class="cls-1" d="M237.88,164.17q11.38-7,23.46-14,11-6.36,21.67-12.23c-1.88-4.79-4.69-11.69-8.41-19.89-4.9-10.77-7.56-15.19-8.42-16.83-1.39-2.67-11.1-21-17.32-19.3-2.36.64-3.7,4.14-6.39,11.14a87.32,87.32,0,0,0-4.08,14,97.24,97.24,0,0,0-1.78,19.89C236.56,135.66,236.75,148.27,237.88,164.17Z"/><path class="cls-2" d="M190.43,379.14a119,119,0,0,0,23,21.79c12.09,8.68,24.93,17.89,41.56,16.71A46.08,46.08,0,0,0,278.21,409c-6,1.71-15.75,3.53-26.52.51-18.5-5.2-29.13-21.68-36.21-32.64-5.12-7.94-6.6-12.54-10.81-20.23-3.48-6.36-6-9.95-6.78-11.13A189.89,189.89,0,0,0,186,329.23c.31,8.41.86,17.23,1.7,26.42C188.45,363.82,189.38,371.66,190.43,379.14Z"/><path class="cls-2" d="M212.36,469.09a30.94,30.94,0,0,0,11-.86c8-2.12,12.82-6.93,16-10.14a47.22,47.22,0,0,0,11.47-19.79,122.56,122.56,0,0,1-24.19,60.43,173.43,173.43,0,0,1-9.75-18.55C215.17,476.35,213.67,472.64,212.36,469.09Z"/><path class="cls-2" d="M312.46,375.15c-1-2.38-1.65-4.36-2-5.61A80.33,80.33,0,0,0,295.13,340c-11-13.38-23.76-19.64-32.64-23.89-8.22-3.94-15.62-6-30.09-10.07-14.13-3.95-26.05-6.58-34.55-8.29a185.94,185.94,0,0,1,20.91,18.61c3.72,3.86,6.4,7,7.39,8.16a186.35,186.35,0,0,1,13.55,18.39c10.13,14.52,25.22,22,30.18,24.45a86,86,0,0,0,34,8.7c7.59,4.1,9.61,4.23,10.09,3.63S313.76,378.29,312.46,375.15Zm-14.41-7.52c-.33.47-1.15.85-6.5-.13-3-.55-5.48-1.16-7.26-1.65a66.38,66.38,0,0,1-25.12-11.22A67.35,67.35,0,0,1,236.1,324a20.92,20.92,0,0,1-1.41-3.44c-.6-1.94-1.14-3.7-.38-4.46.55-.56,1.56-.36,2.68-.13,3.23.67,5.8,1.23,7.78,1.66a75.64,75.64,0,0,1,48.69,39.13c.68,1.27,1.63,3.07,2.72,5.28C298.27,366.33,298.42,367.11,298.05,367.63Z"/><path class="cls-3" d="M235.33,316c1.64,5.79,8,25.41,27.72,38.46a67,67,0,0,0,31.27,10.76,2.45,2.45,0,0,0,.82-1.17,2.84,2.84,0,0,0-.45-2.42c.78,1.52,1.33,2.83,1.73,3.82s.55,1.54.33,1.92c-.54.91-2.9.34-3.11.28a76.7,76.7,0,0,1-30.59-10.32,72.16,72.16,0,0,1-14.87-12.19,63.44,63.44,0,0,1-5.64-7.18,54.17,54.17,0,0,1-3.14-5.33c-.38-.65-.94-1.65-1.59-2.87a69.44,69.44,0,0,1-4.24-10.58c-.33-1-.71-2.28-.1-2.9A2.12,2.12,0,0,1,235.33,316Z"/><path class="cls-4" d="M276.54,307.66q9.46,9,19.09,18.79,6.08,6.17,11.85,12.27a35.27,35.27,0,0,0,4.25,3.22c2.34,1.51,3.69,2.37,4.65,1.86s1-2,1.14-3.57a11.69,11.69,0,0,0-.44-4.05,35.65,35.65,0,0,0-10.8-21.08,34.63,34.63,0,0,0-21.62-9c-2.28-.21-4.18-.32-5.61-.37-2.37-.1-3.45-.06-3.61.39S275.93,307.18,276.54,307.66Z"/><path class="cls-5" d="M193.17,395.56a262.07,262.07,0,0,0,15.67,50.6c3,7,15.19,35.8,33.65,57.56,41.55,49,96.71,55,99.1,55.14,1.58.1,3.17.24,4.75.35,6.05.41,6.36.3,7.23.67,2.73,1.18,2.23,3.45,5.82,9.24,3.35,5.43,5.89,6.84,5.21,9.13-.33,1.14-1,.87-4.17,3.92s-3.33,4-4.91,4.26c-1.38.24-1.73-.45-4.78-.87a30.26,30.26,0,0,0-4-.19A109.16,109.16,0,0,1,324,581.44c-16.3-4.64-27.09-11.86-37.92-19.11a189.18,189.18,0,0,1-36.19-31.57c-22.12-26.15-32.56-48.91-37.81-63.35-5.37-14.76-10.55-35.28-11.87-40.5C196.91,414.08,194.66,403.26,193.17,395.56Z"/><path class="cls-6" d="M328,254.48c5.17-9.24,35.11.79,37.66-5.91,1.13-3-3.68-7.61-8.37-11.35l18.78-39.13-9.39-18.78,9.39-11.74-4.69-7,4.69-14.09-4.69-8.92,17.21-5.17-7.4-15.5a130.13,130.13,0,0,0-73.91,5,342.08,342.08,0,0,0-40.8-54.06C252.09,52.22,244.44,47,238,48.84c-4,1.1-7.37,4.78-13.26,22.51A258.56,258.56,0,0,0,212,136.65a331.85,331.85,0,0,0,0,37.71,423.93,423.93,0,0,0-24,105.05,416.71,416.71,0,0,0,9.18,136.66c9,37.61,17.85,74.73,48.58,111a202.79,202.79,0,0,0,49.33,42,108,108,0,0,0,55.13,17.36c1.8.05,3.56.05,5.31,0l10.42-8L350.29,555l18-14.87-7.83-32.87c-24.63-22.88-30.13-29.74-30.13-29.74-12.06-15-20.08-32.08-17.22-34.43,2.2-1.81,8.82,6.65,22.7,9.39a45.88,45.88,0,0,0,17.21,0l9.39-36.78-10.17-18.79c4-1.86,15.74-7.87,16.05-16.43.09-2.59-1.63-6.37-5.19-13.76-2.84-5.91-5.77-11.42-5.77-11.42l15.65-10-11.74-18,7.83-25.83a86.4,86.4,0,0,1-28.5-21.48C335.54,274.11,324.32,261.14,328,254.48ZM298,367.6c-.33.47-1.16.84-6.5-.13-3-.55-5.48-1.17-7.27-1.66a66.19,66.19,0,0,1-25.11-11.22A67.5,67.5,0,0,1,236,324a22.56,22.56,0,0,1-1.4-3.45c-.6-1.94-1.14-3.69-.38-4.46.55-.55,1.56-.36,2.68-.13,3.23.68,5.8,1.23,7.77,1.66a75.68,75.68,0,0,1,48.7,39.14c.68,1.26,1.63,3.07,2.72,5.27C298.2,366.29,298.34,367.07,298,367.6Z"/><path class="cls-1" d="M236.55,164.06q11.38-7,23.46-14,11-6.36,21.67-12.23c-1.88-4.79-4.68-11.69-8.41-19.89-4.9-10.77-7.56-15.19-8.42-16.83-1.39-2.67-11.09-21-17.32-19.3-2.35.64-3.7,4.14-6.39,11.14a88.14,88.14,0,0,0-4.08,14,97.1,97.1,0,0,0-1.78,19.88C235.23,135.56,235.43,148.16,236.55,164.06Z"/><path class="cls-2" d="M191.11,381a118.4,118.4,0,0,0,23,21.79c12.09,8.68,24.93,17.89,41.57,16.71a46,46,0,0,0,23.2-8.66c-6,1.71-15.75,3.53-26.52.51-18.5-5.2-29.13-21.68-36.2-32.64-5.13-7.94-6.61-12.54-10.82-20.23-3.48-6.36-6-9.95-6.78-11.13a192.33,192.33,0,0,0-11.87-16.26c.31,8.41.85,17.23,1.69,26.42Q189.51,369.79,191.11,381Z"/><path class="cls-2" d="M213.14,470a30.52,30.52,0,0,0,11.05-.86c7.95-2.12,12.82-6.92,16-10.13a47.16,47.16,0,0,0,11.48-19.79,122.83,122.83,0,0,1-24.19,60.42,170.5,170.5,0,0,1-9.75-18.54C216,477.22,214.46,473.51,213.14,470Z"/><path class="cls-2" d="M311.13,375c-1-2.38-1.65-4.36-2-5.61a80.33,80.33,0,0,0-15.29-29.52c-11-13.38-23.76-19.64-32.64-23.89-8.21-3.93-15.62-6-30.09-10.07-14.13-3.95-26-6.58-34.55-8.29a185.94,185.94,0,0,1,20.91,18.61c3.72,3.86,6.4,7,7.39,8.16a185.87,185.87,0,0,1,13.55,18.39c10.14,14.52,25.23,22,30.18,24.45a86,86,0,0,0,34,8.7c7.59,4.1,9.62,4.23,10.09,3.63S312.43,378.18,311.13,375Zm-14.4-7.52c-.33.48-1.16.85-6.51-.13-3-.54-5.48-1.16-7.26-1.65a66.38,66.38,0,0,1-25.12-11.22,67.35,67.35,0,0,1-23.07-30.6,21,21,0,0,1-1.4-3.44c-.6-1.94-1.15-3.7-.39-4.46.56-.56,1.57-.36,2.68-.13,3.23.67,5.8,1.23,7.78,1.66a75.6,75.6,0,0,1,48.7,39.14c.67,1.26,1.63,3.06,2.71,5.27C297,366.22,297.09,367,296.73,367.52Z"/><path class="cls-4" d="M275.21,307.55q9.46,9,19.09,18.79,6.07,6.17,11.85,12.27a35.51,35.51,0,0,0,4.26,3.22c2.33,1.51,3.68,2.37,4.64,1.86s1-2,1.14-3.56a11.72,11.72,0,0,0-.44-4.06A35.53,35.53,0,0,0,305,315,34.63,34.63,0,0,0,283.33,306c-2.28-.21-4.18-.32-5.6-.37-2.38-.1-3.45-.06-3.62.39S274.6,307.08,275.21,307.55Z"/><path class="cls-7" d="M380.72,117.88,390.17,133l-17.08,5.74,3.39,7.7L373,160.7l4.17,7.17-8.61,11.74,8.74,18.91-17.61,39.39c8.45,7.46,9.47,10.7,8.7,12.26-2.69,5.47-30.59-2.53-36.78,4.7a7.07,7.07,0,0,0-2,4.7c.06,1.72,1,2.6,3.13,5.47,3.7,4.91,6.65,9.79,6.65,9.79h0c-7.68-7.22,16.2,14.76,16.83,15.26a113.71,113.71,0,0,0,15.26,10.17c-1.4,5.37-3.1,11-5.18,17q-1.77,5-3.65,9.65L374,345.42,359.26,357c1.06,2,2.5,4.85,4.17,8.22,5.3,10.65,5.71,12.32,5.61,14.35-.23,4.95-3.32,8.63-5.47,11.21a27.88,27.88,0,0,1-9,7.05q2.37,4.16,4.82,8.34t5.06,8.58q-2.37,9.11-4.67,18.42-2.71,11-5.21,21.79c-14.54,1.7-24.21-1.21-30.53-4.44-4.81-2.46-8.16-5.35-9.39-4.3-2.24,1.91,5,14.76,11.85,24,3.13,4.26,6.31,8,23.5,25.25,5,5.06,9.22,9.24,12.13,12.13q3.66,16.44,7.3,32.87a56.06,56.06,0,0,1-4.17,3.91c-6.4,5.44-9.65,8-9.65,8a5.38,5.38,0,0,0-2.09,2.35c-.87,2.34.78,5,1.7,6.26l12.26,18c-1.25.91-2.6,1.83-4.05,2.74a67.49,67.49,0,0,1-8.91,4.69"/></g></svg>