<svg xmlns="http://www.w3.org/2000/svg" viewBox="0 0 700 700"><defs><style>.cls-1{fill:#e2e2e2;stroke-miterlimit:10;}.cls-1,.cls-2{stroke:#2b2b2b;}.cls-2{fill:none;stroke-linecap:round;stroke-linejoin:round;stroke-width:7px;}.cls-3{fill:#d62e2b;}.cls-4{fill:#121211;opacity:0.14;}.cls-5{fill:#1d2e77;}</style></defs><g id="Capa_5" data-name="Capa 5"><path class="cls-1" d="M226.77,160.26a195.86,195.86,0,0,1,77.4-41.56,207.89,207.89,0,0,1,98.61,1.17A156.64,156.64,0,0,1,490,174.26a153.89,153.89,0,0,1,11,20c10.42,22.81,12.84,42.83,14.49,65,2.72,36.3,4.62,62.12,1.44,99.68-1.67,19.68-4.35,49.42-15.3,86.69-7.42,25.26-13.06,44.44-27.39,66.05A179.36,179.36,0,0,1,416,566.41c-7.75,5.57-32,21.47-66.24,20.42a108,108,0,0,1-55.13-17.36,203.16,203.16,0,0,1-49.33-42c-30.72-36.25-39.59-73.38-48.57-111-11.94-50-10.82-86.75-9.18-136.67,1.34-41,5.83-65.78,19.23-90.69A156.9,156.9,0,0,1,226.77,160.26Z"/><line class="cls-2" x1="226.3" y1="332.41" x2="298.7" y2="332.41"/><path class="cls-3" d="M225.55,498.47c12.45,1.73,31,2.54,51.23-4.12,27.08-8.91,46.15-27.57,75.13-70.44,30.57-45.21,63.95-94.58,86.09-173.74a541.37,541.37,0,0,0,18.52-106,90.68,90.68,0,0,1,12.26,8.74c3.32,2.81,6.17,5.79,11.87,11.74,5.07,5.29,6.91,7.53,7.57,8.35a114.12,114.12,0,0,1,6.7,9.34c7.87,12.42,12.73,29.28,12.73,29.28,4.77,16.56,6,29.59,8,52.68.23,2.68,1.31,15.32,2,32.61.4,10.83.88,23.47.44,39a442.75,442.75,0,0,1-7.75,71.25c-2.59,13.38-5.35,24.12-7.56,32.74-3.63,14.11-5.74,22.33-9.35,32.23a202.37,202.37,0,0,1-17.48,36.37c-19.74,31.74-46.24,49.28-55.15,54.8C404.88,573,381.83,587.31,351,586.57a112.39,112.39,0,0,1-32.09-5.74c-15.2-5.12-25.64-12.35-35.87-19.44a189.9,189.9,0,0,1-57.49-62.92Z"/><path class="cls-4" d="M192.68,396.82a262.34,262.34,0,0,0,15.67,50.61c3,7,15.19,35.79,33.65,57.55,22.26,26.25,69.86,61.46,129.85,55.65,54.33-5.26,102-42.56,124.17-95.79-5.66,17.76-18.74,50.63-47.51,77.44-15.84,14.77-32.79,24.3-38.61,27.53-12.17,6.75-21.1,11.71-34.38,14.74a107.69,107.69,0,0,1-52.06-1.85c-16.3-4.64-27.09-11.86-37.91-19.1A188.86,188.86,0,0,1,249.36,532c-22.13-26.14-32.57-48.9-37.82-63.35-5.36-14.76-10.55-35.27-11.87-40.49C196.43,415.35,194.17,404.52,192.68,396.82Z"/><line class="cls-2" x1="418.96" y1="332.41" x2="495.37" y2="332.41"/><path class="cls-5" d="M339.81,250.61a1,1,0,0,0-.29-.89L312,222.87,350,217.34a1,1,0,0,0,.76-.55l17-34.49,17,34.49a1,1,0,0,0,.76.55l38.07,5.53-27.55,26.85a1,1,0,0,0-.29.89l6.5,37.91-34-17.9a1,1,0,0,0-.94,0l-34,17.9Z"/><path class="cls-5" d="M367.82,184.55,384,217.23a2,2,0,0,0,1.5,1.1l36.07,5.24L395.42,249a2,2,0,0,0-.57,1.77L401,286.69l-32.26-17a2,2,0,0,0-1.86,0l-32.26,17,6.16-35.92a2,2,0,0,0-.57-1.77l-26.1-25.43,36.07-5.24a2,2,0,0,0,1.5-1.1l16.13-32.68m0-4.51L349.9,216.35l-40.07,5.82,29,28.27L332,290.35l35.84-18.85,35.84,18.85-6.84-39.91,29-28.27-40.07-5.82L367.82,180Z"/></g></svg>