<svg xmlns="http://www.w3.org/2000/svg" viewBox="0 0 700 700"><defs><style>.cls-1,.cls-2{fill:#4d4540;}.cls-2,.cls-3{stroke:#2b2b2b;stroke-miterlimit:10;stroke-width:0.5px;}.cls-3{fill:none;}</style></defs><g id="Capa_2" data-name="Capa 2"><path class="cls-1" d="M273.06,596.6c-1.67-5.06.53-7.37,1.91-24.05A211.3,211.3,0,0,0,273.65,526l154.18,12.13a193.53,193.53,0,0,0-3.63,31.38c-.61,18.23,1.85,21.8.21,27.05C414.55,628.26,284.18,630.3,273.06,596.6Z"/><path class="cls-2" d="M273.06,596.6c-21.5,1.61-51.94,4-89.87,7.31-16.64,1.46-33.93,3.1-55.52,11-24.23,8.81-36.15,19-42.68,25.56a102.05,102.05,0,0,0-18.35,25.05A106.39,106.39,0,0,0,56.09,700H638.35a107.49,107.49,0,0,0-10.41-34.52,102.18,102.18,0,0,0-18.09-25.05c-6.44-6.55-18.2-16.75-42.08-25.56-21.29-7.86-38.34-9.5-54.74-11-37.41-3.32-67.42-5.7-88.62-7.31"/><path class="cls-3" d="M271,612.78c1.4-9.78,2.57-20.25,3.38-31.36.87-12.1,1.2-23.54,1.16-34.2"/><path class="cls-3" d="M426.41,547.22a229.82,229.82,0,0,0,0,67.65"/><path class="cls-2" d="M189.06,286.16c-5.12-95,72.48-174.3,163.94-172.62,89.28,1.64,163,80,157.93,172.62q-11.91,86.5-23.84,173a92.78,92.78,0,0,1-10.95,29.46A399,399,0,0,1,387,580.8a113.76,113.76,0,0,1-71,0,449.33,449.33,0,0,1-95.19-95.19,117.07,117.07,0,0,1-11.33-40Z"/></g></svg>